<?xml version="1.0" encoding="utf-8"?>
<svg viewBox="562.766 270.702 112.479 115.789" xmlns="http://www.w3.org/2000/svg" xmlns:bx="https://boxy-svg.com">
  <rect x="562.766" y="270.702" width="112.479" height="115.789" style="fill: rgb(88, 4, 168);" rx="21.647" ry="21.647"/>
  <circle style="fill: rgb(255, 255, 255); stroke-width: 13px;" cx="623.339" cy="330.153" r="8.601"/>
  <path d="M 257.546 318.029 L 269.083 338.011 L 246.01 338.011 L 257.546 318.029 Z" style="fill: rgb(255, 255, 255);" transform="matrix(0.484804, -0.874623, 0.919305, 0.404195, 175.202927, 379.643005)" bx:shape="triangle 246.01 318.029 23.073 19.982 0.5 0 1@ee41433e" bx:origin="0.533 0.688"/>
  <path d="M 403.226 236.748 Q 403.226 236.273 403.658 236 Q 404.12 235.707 404.723 235.884 Q 405.394 236.08 405.819 236.748 Q 406.296 237.498 406.22 238.476 Q 406.134 239.57 405.387 240.49 Q 404.559 241.509 403.226 241.933 Q 401.765 242.398 400.201 241.987 Q 398.502 241.54 397.238 240.205 Q 395.876 238.766 395.448 236.748 Q 394.99 234.588 395.742 232.427 Q 396.542 230.127 398.473 228.515 Q 400.518 226.808 403.226 226.377 Q 406.082 225.923 408.844 227.018 Q 411.745 228.169 413.704 230.698 Q 415.756 233.347 416.189 236.748 Q 416.642 240.3 415.201 243.662 Q 413.701 247.164 410.572 249.472 Q 407.32 251.87 403.226 252.304 Q 398.979 252.755 395.016 250.968 Q 390.912 249.119 388.257 245.39 Q 385.513 241.536 385.077 236.748 Q 384.628 231.806 386.76 227.241 Q 388.958 222.537 393.287 219.534 Q 393.599 219.318 393.919 219.113" style="fill: none; stroke-width: 3px; stroke: rgb(255, 255, 255);" transform="matrix(2.529027, 0, 0, 2.445127, -394.509399, -245.759689)" bx:shape="spiral 403.226 236.748 0 19.94 0 692.176 1@450fab55"/>
</svg>