<svg id="Layer_1" data-name="Layer 1" xmlns="http://www.w3.org/2000/svg" viewBox="0 0 543.05 1350.14"><defs><style>.cls-1{fill:#1f191a;}</style></defs><title>DWebCamp_Logo</title><path class="cls-1" d="M210.45,1239.8l10.06-.64c0,10.49,7.73,17.69,18.64,17.69,10.06,0,16.95-5.3,16.95-13,0-6.88-4-10.49-13.13-12.5l-9.53-1.8c-14.51-2.54-20.44-10-20.44-20.76,0-12.92,10.49-21.61,25.52-21.61,14.83,0,25.84,10.06,25.95,24.25l-10.27.53c-.11-10.06-6.67-16.73-16.1-16.73-8.79,0-14.93,5.08-14.93,12.71,0,6.46,3.6,10.17,11.23,11.86l9.53,1.8c15.57,2.75,22.45,10.17,22.45,21.39,0,13-11.23,21.92-27.54,21.92C222,1264.9,210.45,1254.73,210.45,1239.8Z"/><path class="cls-1" d="M277.6,1189h47.34v8.26H288v25h34.85v8H288v32.83H277.6Z"/><polygon class="cls-1" points="271.53 1143.8 91.66 893.89 100.37 887.63 271.53 1125.44 442.69 887.63 451.39 893.9 271.53 1143.8"/><rect class="cls-1" x="266.16" y="417.45" width="10.73" height="717.16"/><path class="cls-1" d="M146.36,189.74h11.25L175.45,253l16.87-63.27h12.87L222,253l17.52-63.27h11.14l-22.28,75.71H215.9l-17.3-64.57-17.3,64.57H168.85Z"/><path class="cls-1" d="M304.58,241.11H262.51c.11,10.27,7,18.28,17,18.28,7.68,0,14.17-4.54,15.25-11.14l8.87.76c-1.08,10.38-11.14,18.06-24.12,18.06-15.68,0-27.15-11.79-27.15-28.66,0-16.33,10.92-28.55,26.71-28.55,14.82,0,25.74,11.46,25.74,27.9A16.35,16.35,0,0,1,304.58,241.11ZM295,234.73c0-9.73-6.6-17.3-16-17.3-9.19,0-16,7-16.44,17.3Z"/><path class="cls-1" d="M373.47,238.73c0,16.55-10.71,28.12-26.17,28.12A21.58,21.58,0,0,1,328,256.15v9.3H318V189.74H328V221a21.55,21.55,0,0,1,19.25-10.92C362.76,210.07,373.47,221.86,373.47,238.73Zm-10.17,0c0-12.11-7.35-20.33-18-20.33s-18,8.33-18,20.33c0,11.68,7.35,19.79,18,19.79S363.3,250.41,363.3,238.73Z"/><path class="cls-1" d="M111.13,324c0-22.39,16.33-39.69,38.5-39.69,19.25,0,35,12.55,35.8,30l-10.17.87c-1-12.33-11.68-21.52-25.63-21.52-15.79,0-27.8,12.33-27.8,30.39,0,17.41,11.46,30.28,27.8,30.28,13.19,0,24.33-8.76,25.42-21.2l10.27.76c-1,16.87-16.11,29.85-35.69,29.85C128.11,363.67,111.13,347,111.13,324Z"/><path class="cls-1" d="M197.24,348.21c0-9.84,8.76-16,24.23-17.3l10.92-1v-2.49c0-7.68-5.19-13.09-12.76-13.09s-13.09,5-13.52,12.11l-9.41-.32c.54-11.79,9.84-19.9,22.93-19.9,13.41,0,22.82,8.87,22.82,21.63v18.49a86.09,86.09,0,0,0,1.3,15.47H234c-.65-2.27-1.08-6.06-1.08-12.76h-.32c-1.73,8.22-8.54,13.74-18.28,13.74C203.84,362.81,197.24,357.07,197.24,348.21ZM232.5,340v-4.54l-9.84.87c-10,.87-15.47,4.76-15.47,11.14,0,5.3,4.22,8.76,10.71,8.76C226.66,356.21,232.5,349.5,232.5,340Z"/><path class="cls-1" d="M340.9,328.74v33.1H330.84V330.14c0-10-4.33-15.47-12.22-15.47-8.87,0-13.84,6.81-13.84,19.36v27.8H294.72V330.14c0-10-4.54-15.47-12.65-15.47-9.08,0-14.17,6.81-14.17,19.36v27.8H257.84v-54h10.06l-.32,13.74c1.95-9.52,8.33-15.14,17.74-15.14s16.12,5.19,18.49,14.17c2.27-9.08,8.54-14.17,18.06-14.17C333.65,306.46,340.9,314.89,340.9,328.74Z"/><path class="cls-1" d="M411.83,335.12c0,16.55-10.71,28.12-26.17,28.12a21.58,21.58,0,0,1-19.25-10.71v29.85H356.35V307.86H366.4v9.52a21.55,21.55,0,0,1,19.25-10.92C401.12,306.46,411.83,318.25,411.83,335.12Zm-10.17,0c0-12.11-7.35-20.33-18-20.33s-18,8.33-18,20.33c0,11.68,7.35,19.79,18,19.79S401.66,346.8,401.66,335.12Z"/><path class="cls-1" d="M232.72,88H260.3c23.14,0,39.15,15.57,39.15,37.85s-16,37.85-39.15,37.85H232.72Zm27.47,67.27c16.87,0,28.55-12.11,28.55-29.42s-11.68-29.42-28.55-29.42h-17v58.84Z"/></svg>